<svg width="29" height="29" viewBox="0 0 29 29" fill="none" xmlns="http://www.w3.org/2000/svg">
<path id="outline" fill-rule="evenodd" clip-rule="evenodd" d="M13.324 3.83545V0.929199H15.3672V3.83545H13.324ZM19.0798 4.77883L20.6122 2.26194L22.3816 3.23069L20.8492 5.74758L19.0798 4.77883ZM14.3456 21.2729C18.2951 21.2729 21.4968 18.2369 21.4968 14.4917C21.4968 10.7465 18.2951 7.71045 14.3456 7.71045C10.3961 7.71045 7.19442 10.7465 7.19442 14.4917C7.19442 18.2369 10.3961 21.2729 14.3456 21.2729ZM14.3456 23.2104C19.4236 23.2104 23.54 19.3069 23.54 14.4917C23.54 9.67647 19.4236 5.77295 14.3456 5.77295C9.26769 5.77295 5.15122 9.67647 5.15122 14.4917C5.15122 19.3069 9.26769 23.2104 14.3456 23.2104ZM25.5832 13.5229H28.648V15.4604H25.5832V13.5229ZM26.221 6.87149L23.5668 8.32461L24.5885 10.0025L27.2426 8.54941L26.221 6.87149ZM6.30969 3.23069L7.84209 5.74758L9.61155 4.77883L8.07915 2.26194L6.30969 3.23069ZM4.1028 10.0025L1.4486 8.54941L2.4702 6.87149L5.1244 8.32461L4.1028 10.0025ZM13.324 25.1479V28.0542H15.3672V25.1479H13.324ZM3.10802 13.5229H0.0432129V15.4604H3.10802V13.5229ZM1.44854 20.434L4.10274 18.9809L5.12434 20.6588L2.47015 22.1119L1.44854 20.434ZM7.84215 23.236L6.30975 25.7529L8.07921 26.7216L9.61161 24.2047L7.84215 23.236ZM20.6121 26.7216L19.0797 24.2047L20.8492 23.236L22.3816 25.7529L20.6121 26.7216ZM23.5669 20.6588L26.2211 22.1119L27.2427 20.434L24.5885 18.9809L23.5669 20.6588Z" fill="white"/>
</svg>
